# xmcd
#
# Track frame offsets:
#	150
#	29001
#	47004
#	62347
#	72939
#	101049
#	115728
#	128708
#	149595
#	159336
#	181124
#	197701
#	220586
#	240526
#	259571
#	283609
#	300596
#
# Disc length: 4594 seconds
#
# Revision: 0
# Processed by: cddbd v1.5.2PL0 Copyright (c) Steve Scherf et al.
# Submitted via: dBpowerAMP V4.0
#
DISCID=ed11f011
DTITLE=Rolling Stones - Beggars Banquet (bonus Tracks)
DYEAR=1968
DGENRE=Classic Rock
TTITLE0=Sympathy For The Devil
TTITLE1=No Expectations
TTITLE2=Dear Doctor
TTITLE3=Parachute Woman
TTITLE4=Jigsaw Puzzle
TTITLE5=Street Fighting Man
TTITLE6=Prodigal Son
TTITLE7=Stray Cat Blues
TTITLE8=Factory Girl
TTITLE9=Salt of The Earth
TTITLE10=Jumping Jack Flash (Original Mono Mix)
TTITLE11=Highway Child (Keith, Mick &Charlie Rock Out) (Unreleased)
TTITLE12=And I Was a Country Boy (Unreleased Instrumental)
TTITLE13=Family (Acoustic Version)
TTITLE14=Blood Red Wine (Unreleased)
TTITLE15=Downtown Lusie (Rough Mix of This. Metamorphosis Track)
TTITLE16=Still a Fool (Unreleased)
EXTD=
EXTT0=
EXTT1=
EXTT2=
EXTT3=
EXTT4=
EXTT5=
EXTT6=
EXTT7=
EXTT8=
EXTT9=
EXTT10=
EXTT11=
EXTT12=
EXTT13=
EXTT14=
EXTT15=
EXTT16=
PLAYORDER=
